<?xml version="1.0" encoding="utf-8"?>
<!-- Generator: Adobe Illustrator 25.2.3, SVG Export Plug-In . SVG Version: 6.00 Build 0)  -->
<svg version="1.1" id="f622ef11-673b-443b-b2c3-35d70219ab5c"
	 xmlns="http://www.w3.org/2000/svg" xmlns:xlink="http://www.w3.org/1999/xlink" x="0px" y="0px" viewBox="0 0 980.2 703"
	 style="enable-background:new 0 0 980.2 703;" xml:space="preserve">
<style type="text/css">
	.st0{fill:#F2F2F2;}
	.st1{fill:#3F3D56;}
	.st2{fill:none;stroke:#3F3D56;stroke-width:2;stroke-miterlimit:10;}
	.st3{fill:#15B1B5;}
	.st4{fill:#E6E8EC;}
	.st5{fill:#FFFFFF;}
	.st6{fill:#FF6584;}
	.st7{fill:#F3C20D;}
	.st8{fill:#2F2E41;}
	.st9{fill:#9F616A;}
	.st10{opacity:0.1;enable-background:new    ;}
	.st11{fill:#EFB7B9;}
	.st12{opacity:0.1;}
	.st13{fill:#A1616A;}
	.st14{fill:#D0CDE1;}
</style>
<path class="st0" d="M980.2,422.9c0,122.8-73,165.7-163.1,165.7S654,545.8,654,422.9s163.1-279.1,163.1-279.1
	S980.2,300.1,980.2,422.9z"/>
<polygon class="st1" points="811.2,569.9 812.8,467.1 882.4,339.9 813.1,451 813.8,404.7 861.8,312.7 814,392.5 814,392.5 
	815.4,309.4 866.7,236.1 815.6,296.3 816.5,143.8 811.2,345.6 811.6,337.3 759.4,257.5 810.8,353.3 805.9,446.2 805.7,443.7 
	745.6,359.7 805.6,452.4 805,464 804.8,464.2 804.9,465.1 792.6,700.7 809,700.7 811,579 870.8,486.5 "/>
<path class="st0" d="M88.2,626.5c0,33.2-19.7,44.8-44.1,44.8S0,659.7,0,626.5C0,593.2,44.1,551,44.1,551S88.2,593.2,88.2,626.5z"/>
<polygon class="st1" points="42.5,666.2 43,638.4 61.8,604 43,634 43.2,621.5 56.2,596.6 43.3,618.2 43.3,618.2 43.6,595.7 
	57.5,575.9 43.7,592.2 43.9,551 42.5,605.6 42.6,603.3 28.5,581.7 42.4,607.6 41.1,632.7 41,632.1 24.8,609.3 41,634.4 40.8,637.6 
	40.8,637.6 40.8,637.9 37.5,701.6 41.9,701.6 42.5,668.7 58.6,643.7 "/>
<line class="st2" x1="6.2" y1="701.7" x2="894.2" y2="701.7"/>
<path class="st3" d="M894.7,671.8c0,22.5-13.4,30.3-29.8,30.3c-0.4,0-0.8,0-1.1,0c-0.8,0-1.5-0.1-2.3-0.1
	c-14.9-1.1-26.4-9.3-26.4-30.2c0-21.6,27.6-48.9,29.7-50.9l0,0c0.1-0.1,0.1-0.1,0.1-0.1S894.7,649.3,894.7,671.8z"/>
<path class="st1" d="M863.8,698.7l10.9-15.2l-10.9,16.9l0,1.8c-0.8,0-1.5-0.1-2.3-0.1l1.2-22.5l0-0.2l0,0l0.1-2.1l-11-17l11,15.4
	l0,0.5l0.9-17l-9.4-17.5l9.5,14.5l0.9-35.2l0-0.1v0.1l-0.2,27.8l9.3-11l-9.4,13.4l-0.2,15.2l8.7-14.6l-8.8,16.8l-0.1,8.5l12.7-20.3
	l-12.7,23.3L863.8,698.7z"/>
<path class="st1" d="M570.9,159.1h5.7c1.3,0,2.3,1,2.3,2.3v80.4c0,1.3-1,2.3-2.3,2.3h-5.7c-1.3,0-2.3-1-2.3-2.3v-80.4
	C568.6,160.1,569.6,159.1,570.9,159.1z"/>
<path class="st1" d="M227.3,92.5h2.8c0.8,0,1.5,0.7,1.5,1.5v25c0,0.8-0.7,1.5-1.5,1.5h-2.8c-0.8,0-1.5-0.7-1.5-1.5V94
	C225.8,93.2,226.4,92.5,227.3,92.5z"/>
<path class="st1" d="M227.2,143.7h3.1c0.9,0,1.7,0.8,1.7,1.7v45.3c0,0.9-0.8,1.7-1.7,1.7h-3.1c-0.9,0-1.7-0.8-1.7-1.7v-45.3
	C225.5,144.5,226.3,143.7,227.2,143.7z"/>
<path class="st1" d="M227.3,209.5h3c0.9,0,1.6,0.7,1.6,1.6V257c0,0.9-0.7,1.6-1.6,1.6h-3c-0.9,0-1.6-0.7-1.6-1.6v-45.9
	C225.7,210.2,226.4,209.5,227.3,209.5z"/>
<path class="st1" d="M264.7,0h273.7c19.7,0,35.7,16,35.7,35.7v630c0,19.7-16,35.7-35.7,35.7H264.7c-19.7,0-35.7-16-35.7-35.7v-630
	C229,16,245,0,264.7,0z"/>
<path class="st4" d="M370.8,20.9h43.1c1.4,0,2.5,1.1,2.5,2.5v4.7c0,1.4-1.1,2.5-2.5,2.5h-43.1c-1.4,0-2.5-1.1-2.5-2.5v-4.7
	C368.3,22.1,369.4,20.9,370.8,20.9z"/>
<circle class="st4" cx="429.3" cy="25.8" r="5.6"/>
<path class="st5" d="M552.8,45.7v610c0,15.1-12.3,27.4-27.4,27.4H277.8c-15.1,0-27.4-12.3-27.4-27.4v-610
	c0-15.1,12.3-27.4,27.4-27.4c0,0,0,0,0,0h37.1V23c0,12.5,10.1,22.6,22.6,22.6h125.9c12.5,0,22.6-10.1,22.6-22.6v-4.8h39.5
	C540.6,18.3,552.8,30.5,552.8,45.7C552.8,45.7,552.8,45.7,552.8,45.7z"/>
<rect x="250" y="159.7" class="st0" width="303" height="348"/>
<path class="st6" d="M272,555.8l-1.6-1.4c-5.7-5.2-9.4-8.6-9.4-12.8c-0.1-3.3,2.6-6,5.9-6.1c0.1,0,0.1,0,0.2,0c1.9,0,3.7,0.9,5,2.3
	c1.2-1.5,3-2.3,5-2.3c3.3,0,6,2.6,6.1,5.9c0,0.1,0,0.1,0,0.2c0,4.2-3.7,7.6-9.4,12.8L272,555.8z"/>
<path class="st0" d="M329.8,550.5l3.1,0.9c1.9-5.4,7.8-8.3,13.2-6.4c1.2,0.4,2.3,1.1,3.3,1.9l-4.7,4.6h11.8V540l-4.7,4.5
	c-5.7-5-14.3-4.4-19.2,1.3C331.3,547.2,330.4,548.8,329.8,550.5L329.8,550.5z"/>
<circle class="st7" cx="270" cy="119.7" r="14"/>
<rect x="295" y="111.7" class="st7" width="130" height="16"/>
<rect x="261" y="579.7" class="st0" width="130" height="16"/>
<rect x="261" y="614.6" class="st0" width="275" height="16"/>
<path class="st0" d="M317,554.8l-3.4-6c1.9-4.5-0.3-9.7-4.8-11.6s-9.7,0.3-11.6,4.8c-1.9,4.5,0.3,9.7,4.8,11.6
	c2.8,1.2,6,0.8,8.5-0.9L317,554.8z"/>
<path class="st8" d="M375.9,241.3L375.9,241.3c-21.6,4.4-35.6,25.6-31.2,47.2l8.3,40.3l9.2-1.9l0.7-4.3l1.9,3.7l56.2-11.5l0.7-4.3
	l1.9,3.7l7.8-1.6l-8.3-40.3C418.6,250.8,397.5,236.9,375.9,241.3z"/>
<polygon class="st9" points="445.5,365.1 493.5,394.1 487.5,408.1 442.5,387.1 "/>
<path class="st3" d="M384.5,398.1c0,0-97,0-113,25c-16,25-3,60,47,68s202,12,214-18s3-47,3-47S483.5,390.1,384.5,398.1z"/>
<path class="st3" d="M470.5,422.1l53,20c0,0,22-16,11-34s-61-122-61-122s-14-20,4-31s25,7,25,7s-1,4,6,1s20,7,13,23s-12,20,3,19
	c5.4-0.4,10.2-4.2,14.1-9.1c7.4-9.2,4.1-16.7,3.6-28.5c-1-20.3-2.5-33.5-7.6-41.5c-7-11-17-20-43-15s-64,30-55,66s29,76,29,76
	S479.5,409.1,470.5,422.1z"/>
<path class="st10" d="M470.5,422.1c-8.6,2.4-19.5,3.5-31.2,3.9c-20.4,0.6-43.3-1.2-61.6-3.2c-19.8-2.2-34.2-4.7-34.2-4.7
	c6.7-6.2,17-8.7,29.1-9.6c15-1.1,32.8,0.2,50-0.4c6.3-0.2,12.7,0.3,18.9,1.4C460.3,413.1,470.5,422.1,470.5,422.1z"/>
<circle class="st9" cx="384" cy="286.6" r="28"/>
<path class="st9" d="M380.5,309.1c0,0,5,19,0,20s-17,6-17,6l15,6l28,26l24,12l12-4v-22l-18-28c0,0-12,4-15-9s-9-18-9-18L380.5,309.1
	z"/>
<path class="st9" d="M373.5,336.1h-12c0,0-21,7-33,23s-31,32-31,32s-13,18-6,43c7,25,17,43,26,38s-13-41-13-41l6-22c0,0,31-36,44-35
	s14,12,14,12l28,8l9-19l-5-20L373.5,336.1z"/>
<path class="st1" d="M445.5,399.1c-1.9,3.2-3.3,6.8-4.1,10.4c-1.2,5.4-1.9,10.9-2.1,16.5c-20.4,0.6-43.3-1.2-61.6-3.2
	c-1.6-4.3-3.4-9.3-5.1-14.3c-4.7-13.5-9-27.4-9-29.4c0-4,21,3,26,2s7-17,0-25S362,334.6,362,334.6l7-2c0,0,15.5,11.5,47.5,30.5
	s19-11,19-11L417,323.6h8c0,0,15.5,26.5,23.5,38.5S453.5,386.1,445.5,399.1z"/>
<rect x="355.8" y="253.7" transform="matrix(0.9797 -0.2005 0.2005 0.9797 -46.2905 81.9858)" class="st8" width="51.8" height="31.8"/>
<circle class="st1" cx="513" cy="237.6" r="15"/>
<circle class="st5" cx="513" cy="237.6" r="8"/>
<path class="st3" d="M72.7,410.7l-1,7.9c-0.3,2.7-0.7,5.3-0.9,8c-0.6,8.9,0.5,17.9,0.2,26.9c-0.2,6.9-1.3,13.8-0.8,20.7
	c0.5,6.1,2.2,12,3.9,17.8l2.5,8.4c0.1,0.9,0.9,1.6,1.8,1.5c0.1,0,0.3,0,0.4-0.1l10.9-1c-0.7-3.2-1.5-6.5-1.8-9.8
	c-0.3-2.6-0.5-5.2-0.7-7.7c-0.6-8-1.2-16.1-1.9-24.1L84.2,445c-0.5-6.1-1-12.3-2.5-18.2C80.1,420.7,77,415.2,72.7,410.7z"/>
<path class="st10" d="M72.7,410.7l-1,7.9c-0.3,2.7-0.7,5.3-0.9,8c-0.6,8.9,0.5,17.9,0.2,26.9c-0.2,6.9-1.3,13.8-0.8,20.7
	c0.5,6.1,2.2,12,3.9,17.8l2.5,8.4c0.1,0.9,0.9,1.6,1.8,1.5c0.1,0,0.3,0,0.4-0.1l10.9-1c-0.7-3.2-1.5-6.5-1.8-9.8
	c-0.3-2.6-0.5-5.2-0.7-7.7c-0.6-8-1.2-16.1-1.9-24.1L84.2,445c-0.5-6.1-1-12.3-2.5-18.2C80.1,420.7,77,415.2,72.7,410.7z"/>
<path class="st1" d="M92.1,681.3c-0.6,1.3-1.2,2.6-1.7,3.9c-1.3,3.7-1.4,7.6-1.6,11.5c-0.1,0.7,0,1.5,0.2,2.2
	c0.5,1.4,2.1,2.1,3.5,2.5c6,1.6,12.4,0.1,18.6-0.5c6.1-0.5,12.3-0.2,18.3-1.5c0.9-0.2,1.7-0.5,2.5-0.9c1.5-1,2.6-2.5,3.2-4.2
	c0.2-0.4,0.3-0.9,0.4-1.4c0.2-2-1.6-3.8-3.5-4.5c-1.9-0.7-4-0.6-6.1-0.8c-8.6-0.9-15.6-7.4-17-16c-0.1-0.4-10.1-0.2-11.1,0.4
	c-1.2,0.7-2,2.4-2.7,3.5C94.1,677.5,93.1,679.4,92.1,681.3z"/>
<path class="st10" d="M92.1,681.3c-0.6,1.3-1.2,2.6-1.7,3.9c-1.3,3.7-1.4,7.6-1.6,11.5c-0.1,0.7,0,1.5,0.2,2.2
	c0.5,1.4,2.1,2.1,3.5,2.5c6,1.6,12.4,0.1,18.6-0.5c6.1-0.5,12.3-0.2,18.3-1.5c0.9-0.2,1.7-0.5,2.5-0.9c1.5-1,2.6-2.5,3.2-4.2
	c0.2-0.4,0.3-0.9,0.4-1.4c0.2-2-1.6-3.8-3.5-4.5c-1.9-0.7-4-0.6-6.1-0.8c-8.6-0.9-15.6-7.4-17-16c-0.1-0.4-10.1-0.2-11.1,0.4
	c-1.2,0.7-2,2.4-2.7,3.5C94.1,677.5,93.1,679.4,92.1,681.3z"/>
<path class="st1" d="M108.7,682.2c-0.6,1.3-1.2,2.6-1.7,3.9c-1.3,3.7-1.4,7.6-1.6,11.5c-0.1,0.7,0,1.5,0.2,2.2
	c0.5,1.4,2.1,2.1,3.5,2.5c6,1.6,12.4,0.1,18.6-0.5c6.1-0.5,12.3-0.2,18.3-1.5c0.9-0.2,1.7-0.5,2.5-0.9c1.5-1,2.6-2.5,3.2-4.2
	c0.2-0.4,0.3-0.9,0.4-1.4c0.2-2-1.6-3.8-3.5-4.5c-1.9-0.7-4-0.6-6.1-0.8c-8.6-0.9-15.6-7.4-17-16c-0.1-0.4-10.1-0.2-11.1,0.4
	c-1.2,0.7-2,2.4-2.7,3.5C110.7,678.4,109.7,680.3,108.7,682.2z"/>
<path class="st8" d="M152,583.5c0.1,20.1-5.7,39.7-12.6,58.6c-2.7,7.5-5.6,14.9-8.6,22.2c-1.8,4.4-3.8,9.2-1.9,13.5
	c-5.6-2.1-11.2-3.4-17.1-2.4c2.2-4.6,2-9.8,2.1-14.9c0.2-6.9,0.9-13.7,2.2-20.5c2-10.3,5.3-20.3,10-29.6c0.9-2,1.6-4.1,1.9-6.2
	c0.6-4.8,0.3-9.7-0.8-14.4c-2.1-10.4-6.2-20.4-12-29.4c0,0.2,0,0.4-0.1,0.6c-0.3,3-0.9,6-1.5,8.9c-1.3,6.2-2.8,12.4-2.6,18.7
	c0.2,6.6-0.2,13.3-1.2,19.8c-0.3,2.6-1,5.1-2,7.5c-0.6,1.4-1.5,2.8-2,4.3c-0.5,1.7-0.8,3.5-0.8,5.3c-0.7,15.1,0,34.5,3.1,49.3
	c-5.2-0.2-10.4,0.9-15,3.4c-3.7-10.5-6.1-25.5-7.9-36.6c-2-13.1-1.6-26.5,1.2-39.5c0.9-4.3,1.2-8.7,1-13.2
	c-0.4-8.8-2.6-17.4-4.7-25.9c-1.1-4.3-2.2-8.7-3.3-13c-1.6-6.2-3.1-12.3-4.7-18.5c-1-4.1-2.1-8.3-1.8-12.5c0.2-2.3,0.7-4.6,1.4-6.8
	c2.3-7.5,5.8-14.6,10.3-21c17.9,1,36-0.7,53.9-2c0.9-0.2,1.8,0,2.5,0.4c0.6,0.6,1,1.4,1,2.3c2.2,12.7,4.5,25.4,6.7,38.1
	c1.1,5.3,1.7,10.7,1.9,16.1c0,5.4-0.8,10.8-0.6,16.1C150.6,569.4,151.9,576.3,152,583.5z"/>
<path class="st10" d="M115.2,561c-0.3,3-0.9,6-1.5,8.9c-3.9-6.7-8.1-13.3-11.7-20.2c-0.9-1.8-1.8-3.6-2.7-5.4
	c-0.9-1.8-1.8-3.6-2.6-5.4c-0.5-1-1-2-1.4-3.1c-0.7-1.5-1.3-3.1-1.7-4.7c1.3-0.2,4.5,3.3,5.5,4.2c2,2,3.9,4,5.6,6.2
	c2.1,2.4,4.1,4.9,5.8,7.6C112.7,552.8,114.3,556.8,115.2,561z"/>
<path class="st11" d="M130.1,376.1c0,0-9.9,15.8-8.1,19.2s-31.3-2.9-31.3-2.9s18.1-15.8,16.2-22.5S130.1,376.1,130.1,376.1z"/>
<ellipse transform="matrix(7.088900e-02 -0.9975 0.9975 7.088900e-02 -244.8545 453.9814)" class="st11" cx="121.3" cy="358.4" rx="22.5" ry="22.5"/>
<path class="st3" d="M130.4,392.7c-2.4-3.3-5.7-6-9.5-7.6c-2.2-0.8-4.4-1.3-6.7-1.7l-9-1.6c-2.2-0.4-4.6-0.8-6.6,0.2
	c-1,0.5-2,1.2-2.8,2.1c-3.1,2.9-6.1,6.1-10,7.7c-1.1,0.5-2.2,0.8-3.3,1.2c-4.4,1.9-7.6,5.8-9.5,10.2c-1.9,4.6-2,9.6-1.9,14.6
	c0,1.7,0.2,3.4,0.5,5.1c0.5,1.6,1,3.2,1.7,4.7c1.2,3.3,2.3,6.6,3.1,10c2.3,8.9,4.3,17.9,5.8,27c0.1,1.3,0.5,2.6,1.1,3.7
	c0.9,1.2,1.9,2.2,3.1,3c0.9,0.8,1.8,1.6,2.6,2.6c0.4,0.4,0.7,0.9,0.8,1.4c0.3,1.3-0.9,2.5-1.9,3.5c-2,2-3.4,4.6-4.2,7.3
	c-0.5,0.6-0.7,1.3-0.7,2c0.2,0.5,0.3,1.1,0.2,1.6c-0.2,0.5-0.5,0.9-0.8,1.3c-0.9,1.1-1.2,2.6-0.9,4c7,3,14.4,4.8,22,5.2
	c1.9,0.1,3.7,0.1,5.6,0.3c1.3,0.2,2.6,0.4,3.9,0.6c1.9,0.2,3.8,0.2,5.8,0.1c10-0.2,20.3-0.5,29.5-4.4c0.9-4.7-1-9.5-2.2-14.2
	c-1.9-7.4-2.3-15.1-3.7-22.5c-0.9-5.1-2.3-10.2-3.1-15.3s-1-10.5,0.4-15.5c1.3-4.4,1.6-9,2.9-13.4s2.2-9.2,0.7-13.6
	C141.8,396.7,136.2,392.4,130.4,392.7z"/>
<path class="st8" d="M141.5,346.5c1.1-4-1.1-8.1-3.6-11.4c-2.8-3.5-6.3-6.6-10.7-7.5c-3.5-0.7-7.2,0.1-10.8-0.1
	c-3.2-0.3-6.3-1.4-9.4-1.8c-2.9-0.3-5.8-0.2-8.6,0.3c-2.7,0.4-5.3,1.1-7.9,2.2c-9.6,4.2-15.2,14.7-16.5,25.1s1,20.8,3.2,31.1l2,9.2
	c2.1,9.6,4.3,19.3,4.8,29.1s-0.5,19.9-4.5,28.9c13.1-7,23.2-18.5,28.6-32.3c1.5-3.8,2.5-7.7,4.1-11.5c1.4-3.2,3.2-6.3,4.4-9.5
	c1.4-3.7,2.1-7.6,2-11.6c-0.1-3-0.6-5.9-0.5-8.9s0.8-6.1,2.9-8.2c1.8-1.9,4.4-2.8,6.8-4c3.7-1.9,6.9-4.6,9.5-7.9
	c1.5-1.9,1.6-2.8,1.9-5C139.6,350.4,140.9,348.6,141.5,346.5z"/>
<path class="st11" d="M141.5,515.4c0.2,2.3-0.2,4.7,0.3,6.9c0.4,1.7,1.3,3.3,1.8,4.9c0.5,1.9,0.8,3.9,0.8,5.9
	c0.1,1.7-0.1,3.7-1.5,4.5c-0.7,0.3-1.4,0.4-2.1,0.6c-0.7,0.3-1.3,1.1-0.9,1.7c0.3,0.5,1.1,0.5,1.7,0.7s1.3,0.8,0.9,1.3
	c-0.1,0.2-0.3,0.3-0.5,0.3c-0.6,0.2-1.2,0.5-1.7,0.8c-0.5,0.4-0.8,1-0.7,1.7c0.1,0.6,0.7,0.9,1.3,0.8c0.1,0,0.2,0,0.2-0.1
	c-0.3,0.6-0.4,1.2-0.4,1.9c2.4,1,5-0.3,7.3-1.6c1-0.5,1.9-1.1,2.8-1.8c3.6-2.8,5.7-7.3,5.4-11.9c-0.1-1.1-0.3-2.3-0.5-3.4
	c-0.3-1.9-0.8-3.9-1.4-5.8c-0.6-2-1.5-3.9-2.3-5.9c-1.6-4.2-2.6-8.5-4.1-12.8c-0.1-0.8-0.8-1.4-1.6-1.3c0,0-0.1,0-0.1,0
	c-1.6-0.1-3.3,0.1-4.8,0.4c-1,0.3-2.5,0.9-3,1.9c-0.4,0.9,0.3,1.7,0.7,2.5C140.3,510.2,141.1,512.7,141.5,515.4z"/>
<path class="st10" d="M140,402.4c0.5,0.5,0.9,1,1.2,1.7c3.2,5.8,3.2,12.8,3.4,19.4c0.2,7.5,0.6,14.9,1,22.3l1.2,22.3
	c0.1,2.1,0.2,4.3,0.5,6.4c1.4,0.4,1.5,2.2,1.3,3.7c-1,9.1-3.6,18.4-0.9,27.2c0.1,0.5,0.3,0.9,0.6,1.2c-1.3-0.4-2.8-0.4-4.2-0.1
	c-1.3,0.3-2.6,0.8-3.9,1.1c-1.7,0.4-3.6,0.6-4.8,1.8c-1.3-3.9-2.3-7.9-3.1-12c-0.6-3.7-0.8-7.5-2.3-11c-0.6-1.4-1.4-2.7-2.2-4
	c-3.9-7-5.8-14.8-7.7-22.6c-0.8-3.7-1-7.5-0.6-11.2c0.3-1.7,0.4-3.4,0.5-5.2c-0.1-1.8-0.4-3.6-0.7-5.4c-0.8-5.3-0.4-10.6,1.1-15.7
	c1.4-4.7,2.6-9.7,5.5-13.7C128.9,404.7,135.1,402.5,140,402.4z"/>
<path class="st3" d="M141.1,401.7c0.5,0.5,0.9,1,1.2,1.7c3.2,5.8,3.2,12.8,3.4,19.4c0.2,7.5,0.6,14.9,1,22.3l1.2,22.3
	c0.1,2.1,0.2,4.3,0.5,6.4c1.4,0.4,1.5,2.2,1.3,3.7c-1,9.1-3.6,18.4-0.9,27.2c0.1,0.5,0.3,0.9,0.6,1.2c-1.3-0.4-2.8-0.4-4.2-0.1
	c-1.3,0.3-2.6,0.8-3.9,1.1c-1.7,0.4-3.6,0.6-4.8,1.8c-1.3-3.9-2.3-7.9-3.1-12c-0.6-3.7-0.8-7.5-2.3-11c-0.6-1.4-1.4-2.7-2.2-4
	c-3.9-7-5.8-14.8-7.7-22.6c-0.8-3.7-1-7.5-0.6-11.2c0.3-1.7,0.4-3.4,0.5-5.2c-0.1-1.8-0.4-3.6-0.7-5.4c-0.8-5.3-0.4-10.6,1.1-15.7
	c1.4-4.7,2.6-9.7,5.5-13.7C130,404,136.2,401.8,141.1,401.7z"/>
<g class="st12">
	<path d="M137.9,335.1c-2.8-3.5-6.3-6.6-10.7-7.5c-3.5-0.7-7.2,0.1-10.8-0.1c-3.2-0.3-6.3-1.4-9.4-1.8c-2.9-0.3-5.8-0.2-8.6,0.3
		c-2.7,0.4-5.3,1.1-7.9,2.2c-1.4,0.6-2.7,1.3-3.9,2.2c2.2-0.8,4.6-1.5,6.9-1.8c2.8-0.5,5.7-0.6,8.6-0.3c3.2,0.4,6.2,1.6,9.4,1.8
		c3.6,0.3,7.3-0.6,10.8,0.1c4.4,0.9,7.9,4,10.7,7.5c2.6,3.2,4.7,7.4,3.6,11.4c-0.6,2.1-1.9,3.9-2.3,6.1c-0.4,2.2-0.5,3.1-1.9,5
		c-1.9,2.5-4.2,4.6-6.8,6.4c0.7-0.3,1.4-0.7,2.2-1c3.7-1.9,6.9-4.6,9.5-7.9c1.5-1.9,1.6-2.8,1.9-5c0.4-2.2,1.7-4,2.3-6.1
		C142.6,342.5,140.4,338.4,137.9,335.1z"/>
	<path d="M121,369.5c0.4-0.4,0.8-0.8,1.3-1.1c-2.1,1-4.4,2-6,3.7c-2.1,2.1-2.8,5.2-2.9,8.2s0.4,5.9,0.5,8.9c0.1,4-0.6,7.9-2,11.6
		c-1.2,3.3-3,6.3-4.4,9.5c-1.6,3.7-2.7,7.7-4.1,11.5c-4.6,12-12.9,22.3-23.6,29.4c-0.1,0.1-0.1,0.2-0.2,0.4
		c13.1-7,23.2-18.5,28.6-32.3c1.5-3.8,2.5-7.7,4.1-11.5c1.4-3.2,3.2-6.3,4.4-9.5c1.4-3.7,2.1-7.6,2-11.6c-0.1-3-0.6-5.9-0.5-8.9
		S119,371.7,121,369.5z"/>
</g>
<path class="st8" d="M614.7,699.9c-1.1,1.3-2.9,1.6-4.6,1.7c-2.1,0.3-4.3,0.4-6.5,0.1c-2.6-0.4-4.1,1.1-6.4,0c-1.4-0.7-3.6,0.7-5,0
	c-1.9-0.9-8.6-1.1-9.8-2.9c-1.2-1.8-1.1-4.7,0.8-5.7c0.5-0.3,1.1-0.5,1.6-0.6c3.1-1.2,9.4-10.6,12.8-11.1c1.6-0.1,3.3,0.3,4.7,1.1
	c3.3,1.5,9.1,2.6,10.5,6.3C613.9,691.6,617,697.1,614.7,699.9z"/>
<path class="st8" d="M638.2,699.1c1.1,1.3,2.9,1.6,4.6,1.7c2.1,0.3,4.3,0.4,6.5,0.1c2.6-0.4,5.7,1.8,8,0.7c1.4-0.7,3.6-0.3,5-1
	c1.9-0.9,11,1.1,12.2-0.7s1.1-4.7-0.8-5.7c-0.5-0.3-1.1-0.5-1.6-0.6c-3.1-1.2-13.4-12.6-16.8-13.1c-1.6-0.1-3.3,0.3-4.7,1.1
	c-3.3,1.5-9.1,2.6-10.5,6.3C638.9,690.8,635.9,696.3,638.2,699.1z"/>
<path class="st8" d="M648.5,494.9c1,2,1.9,4,2.7,6.1c9.1,24,9.8,50.3,10.2,75.9c0,4.2,0.2,8.3,0.7,12.5c0.4,2.6,1,5.3,0.6,7.9
	c-0.3,2.3-1.4,4.5-1,6.8c0.2,1,0.7,1.9,0.9,3c0.1,1.1,0.1,2.2-0.1,3.3l-1.2,9.1c-0.7,5.2-2.3,10.1-2.2,15.3
	c0.1,3.5,0.1,7.1,0.5,10.6c0.4,3.6,1.1,7.1,1.2,10.7c0,2.7-0.3,5.4-0.6,8.1c-0.3,3.8-0.4,7.6-0.2,11.4c0.1,2.9,0.5,6,2,8.5
	c-1.7,2.5-3.5,4.7-6.3,6c-5.7,2.5-12.2,1.6-18.3,0.8c0.3-1.1,0.9-2.4,0.4-3.5c-0.3-0.5-0.6-1-1.1-1.4c-1.3-1.9-2.3-4.1-2.7-6.3
	c-0.7-2.7-1.5-5.6,0-8.2c0.5-0.9,0.8-2,0.7-3c-1.3-17-5.1-34.6-1.6-51.3c0.4-1.8,0.8-3.6,1-5.4c0.2-2.6,0.2-5.2,0.1-7.8l-0.1-3.6
	c-0.2-3.9,0-7.8-0.8-11.7c-0.6-2.7-1.6-5.5-0.3-8.3c0.6-1.3,0.5-2.8-0.2-4c-2.7-4.7-4.9-9.7-6.5-14.9c-0.3-1.5-0.8-2.9-1.4-4.2
	c-0.8-1.4-1.7-2.8-2.7-4.1c-3-4.4-4.9-9.5-6.6-14.6c0.2-0.5,0-1.1-0.5-1c-0.5,0.1-0.9,0.4-1.2,0.9c-2.4,3.3-2.6,7.7-2.8,11.8
	c-0.2,3.8-0.1,7.6,0.2,11.4c0.2,2,0.6,4,0.7,5.9c0.2,3.7,0.2,7.4-0.2,11.1l-1.2,18.2c-0.2,1.5-0.1,3,0.3,4.5
	c0.8,2.6,1.2,5.2,1.2,7.9c-0.3,11,0.6,22,2.8,32.8c0.6,3,1.3,5.9,1.8,8.9c1.2,7.1,1.4,14.3,1.5,21.4c0.1,4.4,0.2,9-1.6,13
	c-0.7,1.2-1.2,2.6-1.5,4c0,0.7-0.1,1.4-0.3,2.1c-0.5,1.3-2,1.9-3.4,2.2c-2.6,0.6-5.2,0.8-7.9,0.6c-0.6,0-1.2-0.1-1.8-0.4
	c-1-0.5-1.5-1.6-2.3-2.4c-1.6-1.8-4.3-2.3-5.8-4.2c-1.8-2.4-1.1-5.8,0-8.5c1.1-2.8,2.4-5.8,1.5-8.6c-1.1-3.3-5-5.1-6.1-8.5
	c3-13.5-4.4-27.5-3.8-41.4c0.1-3.2,0.7-6.4,0.7-9.7c0-8.3-3.6-16.4-3-24.7c1.5-21.1-5.7-42.1-8.7-63.1c-0.6-3.1-0.8-6.3-0.6-9.5
	c0.5-5.2,2.9-10.1,5.8-14.5c2.1-3.1,4.6-6.2,8.1-7.7c2.9-1.2,6.1-1.2,9.2-1.2c7.7,0.1,15.5,0.1,23.2,0.3c5.3-0.1,10.5,0.4,15.7,1.4
	C640.4,492.4,644.3,494.3,648.5,494.9z"/>
<path class="st13" d="M523.5,398.8c-0.7-3.7,0.7-7.6-0.4-11.2c-0.4-1.3-1.4-2.6-2.7-2.6c-1.3,0-2.2,1.3-3.4,1.9
	c-1.9,1-4.2,0.1-6-0.9s-4-2.1-6-1.5c-0.2,1.3,0.6,2.5,1.6,3.4c1,0.8,1.9,1.8,2.5,2.9c0.3,1.2,0.4,2.5,0.3,3.8
	c0.2,2.9,2.1,5.4,3.9,7.7c3,3.6,6.1,7.1,9.4,10.5c0,0,5-6.2,4.9-7.3c-0.1-1-1.8-2-2.4-2.8C524.4,401.5,523.8,400.2,523.5,398.8z"/>
<path class="st13" d="M673.5,475.6c0.4,1.2,0.8,2.4,1,3.6c1.3,6.3,2.1,12.7,2.9,19.1c0.2,1.7,0.4,3.4,0.5,5.1
	c0.2,4.1-0.6,8.1-2.4,11.8c-1.9,3.7-5,6.5-8.8,8c-1.2,0.4-2.8,0.5-3.3-0.6c-0.2-0.5-0.2-1.1,0-1.6c0.5-1.7,1.4-3.2,2-4.9
	c0.9-2.5,1.1-5.2,0.4-7.7c-0.2-1-0.8-2.1-1.7-2.3c0.5,2.3,0.1,4.6-1.2,6.6c-0.3,0.5-0.8,1-1.3,1.1c-0.8,0.1-1.6-0.4-1.9-1.2
	c-0.2-0.8-0.3-1.6-0.2-2.4c0.3-4.1,0.9-8.2,1.9-12.2c1.1-4.4,2.8-8.7,2.7-13.3c-0.1-4.1-1.7-8.1-1.3-12.2c0-0.3,0.1-0.5,0.2-0.7
	c0.1-0.1,0.3-0.3,0.5-0.3c1.1-0.5,2.3-0.9,3.5-1.2c0.7-0.2,3.1-1,3.8-0.6c0.6,0.3,0.7,2.1,1,2.8
	C672.4,473.5,673.1,474.5,673.5,475.6z"/>
<circle class="st13" cx="592.6" cy="337.3" r="16.7"/>
<path class="st13" d="M607.6,349.5c0,1.1,0.1,2.1,0.3,3.2c0.2,1.1,0.6,2.1,1,3.1c0.6,1.6,1.3,3.2,2.3,4.6c1,1.4,2.5,2.4,4.2,2.8
	c-11.4,5.4-23.7,8.9-36.2,10.5c2-1.3,3.6-3.1,4.8-5.1c0.6-1.3,1.1-2.7,1.3-4.2c1.1-6.1,0.5-12.3-1.6-18.1c-0.2-0.6-0.4-1.3,0-1.7
	c0.2-0.2,0.4-0.3,0.6-0.4c5-2.1,10.3-3.1,15.7-2.9c1.4,0,2.8,0.1,4.1,0.2c0.7,0.1,2.4-0.1,3,0.4c0.7,0.6,0.4,2.7,0.4,3.5
	L607.6,349.5z"/>
<path class="st14" d="M616.5,361.7c-5.1-6.5-13.9-8.7-21.4-5.3c-8,3.8-11.9,12.9-18.9,18.3c-1.6,1.2-3.3,2.2-5.1,3.1
	c-1.1,0.6-2.2,1-3.3,1.3c-1.3,0.3-2.7,0.2-4,0.6c-2.5,0.7-4.6,2.4-5.9,4.6c-0.7,1.2-1.4,2.3-2.2,3.4c-0.7,0.9-1.6,1.6-2.4,2.4
	c-2.8,3-3.5,7.3-4.2,11.3c-2.2,2.3-4.6,4.4-7.1,6.3c-0.8,0.6-1.7,1.1-2.6,1.5c-2.5,0.8-5.2-0.2-7.2-1.7s-3.8-3.5-5.9-5.1
	c-1.9,2.7-3.9,5.4-5.9,8c-0.3,0.5-0.8,0.9-1.3,1.1c-0.4,1.3,0.5,2.6,1.2,3.7l3.7,6.1c1.2,2.2,2.7,4.3,4.4,6.2c1.7,1.9,4.1,3,6.7,3.3
	c1.6,0,3.2-0.3,4.7-0.9c7-2.3,13.3-6.1,20-9.3c1.2-0.7,2.5-1.1,3.9-1.2c1.4,0,2.7,0.9,3.1,2.2c0.8,3.8,1.5,7.7,2.6,11.4
	c1,3.6,1.9,7.1,2.7,10.7c0.6,2.2,1,4.4,1.2,6.7c0.1,1.3,0.1,2.6,0.1,3.9l0.1,15.5c0,1.7-0.9,2.7-1.7,4.2c-1.1,2.3-1.3,5-0.5,7.5
	c0.4,1.2,1.1,2.3,1.5,3.5c1.1,2.9,1.1,6.1,1,9.2l-0.1,7.1c0,0.3,0,0.6,0.2,0.9c0.4,0.7,1.5,0.3,2.1-0.2l3.3-2.3
	c4.4,0.6,8.9,0.8,13.4,0.6c12.7-0.2,25.4,0.3,38.1,1.2c4.2,0.3,8.6,0.6,12.6-0.8c2-0.7,3.9-1.9,6-2.4c0.9-0.1,1.7-0.5,2.4-1
	c1.2-1.1,0.9-3,0.4-4.5c-0.4-1.3-0.9-2.6-1.4-3.9c-0.5-1.2-1-2.4-1.3-3.7c-0.6-2.8,0-6.1-1.8-8.4c-3.9-5.2-1.2-13.1-2.8-19.3
	c-0.5-2-1.3-4-1.8-6c-0.3-1.3-0.5-2.6-0.7-3.9c-0.5-2.8-0.8-5.7-0.8-8.5c0-1.4,0.2-2.9,0.4-4.3l1.3-9.9c1.6,2.9,2.7,6.1,3.2,9.3
	c1.1,4.9,2.5,9.7,4.2,14.4c0.9,2.8,1.9,5.7,2.9,8.5c0.6,1.6,1.1,3.3,1.5,5c0.2,1.4,0.2,2.8,0.4,4.1c0.3,3,1.4,5.8,3,8.3
	c0.3,0.6,0.8,1,1.4,1.3c0.4,0.1,0.8,0.1,1.2-0.1c4.4-0.9,8.7-2.4,12.7-4.4c0.9-0.4,1.6-0.9,2.1-1.7c1.1-1.8-0.1-4-0.7-5.9
	c-0.6-2.1-0.4-4.7-2.1-6.1c-5.9-5-3-15.1-5.9-22.2c-0.5-1.2-1.1-2.5-1.6-3.7c-0.3-1-0.6-2-0.8-3c-2-8.3-4.2-16.5-6.6-24.8
	c-2.4-8.5-2.2-17.4-5.2-25.7c-0.6-1.7-1.3-3.4-2.2-5c-1-1.7-2.4-3.1-4-4.2c-4.4-2.9-8.9-5.4-14.1-6.5S621.8,361.6,616.5,361.7z"/>
<path class="st8" d="M577.4,341.4c-2.3-1.2-1.7-4.5-2-7c-0.8-5.2-6.7-8.3-8-13.4c1.6,0.2,3.2,0,4.7-0.7c0.3-1.7-0.1-3.4-0.9-4.9
	c4.8-2,8.7-5.8,13.7-7.6c6.2-2.2,13-0.9,19.3,1.2c3.1,1,6.3,2.4,8.2,5.1c2.1,2.9,2,6.8,1.9,10.4c-0.2,5.6-0.4,11.5-2.9,16.5
	c-3.2,6.4-12.2,12.4-19.7,10.6c-3.1-0.7-4-2.7-5.3-5.4c-0.8-1.7-1.1-3.6-3-4.5C581.4,341,579.2,342.4,577.4,341.4z"/>
<g class="st12">
	<path d="M645.3,461.5c0,0.4,0,0.9,0,1.3C645.3,462.4,645.3,462,645.3,461.5z"/>
	<path d="M572.8,478.3c1.1,2.9,1.1,6.1,1,9.2c0,0.8,0,1.6,0,2.4c-0.1-1.7-0.4-3.3-1-4.9c-0.5-1.2-1.1-2.3-1.5-3.5
		c-0.7-2.1-0.7-4.4,0.1-6.5C571.7,476.1,572.3,477.2,572.8,478.3z"/>
</g>
<g class="st12">
	<path d="M572,318L572,318c-0.2-0.9-0.5-1.7-0.9-2.4c0.3-0.1,0.6-0.2,0.8-0.4C572.1,316.1,572.1,317,572,318z"/>
</g>
<path class="st6" d="M44.2,283.8l-3.9-3.6C26.3,267.4,17,259,17,248.6c-0.1-8.2,6.4-14.9,14.5-15.1c0.1,0,0.3,0,0.4,0
	c4.7,0,9.2,2.1,12.2,5.8c3-3.6,7.5-5.7,12.2-5.8c8.2-0.1,14.9,6.5,15,14.6c0,0.1,0,0.3,0,0.4c0,10.4-9.3,18.8-23.3,31.6L44.2,283.8z
	"/>
<path class="st2" d="M51.2,274.8l-3.9-3.6C33.3,258.4,24,250,24,239.6c-0.1-8.2,6.4-14.9,14.5-15.1c0.1,0,0.3,0,0.4,0
	c4.7,0,9.2,2.1,12.2,5.8c3-3.6,7.5-5.7,12.2-5.8c8.2-0.1,14.9,6.5,15,14.6c0,0.1,0,0.3,0,0.4c0,10.4-9.3,18.8-23.3,31.6L51.2,274.8z
	"/>
</svg>
